<svg version="1.1" xmlns="http://www.w3.org/2000/svg" xmlns:xlink="http://www.w3.org/1999/xlink" vierGradient>
    <g fill="black">
        <path transform="translate(-252,-129)" stroke="black" stroke-width="5"
        d="M560.7,337.1l-261.2,0.1c-3.9,0-7.5-0.9-10.7-2.5c1.3-2.3,2.8-4.5,4.7-6.4c2.6-2.7,5.7-4.9,9.3-6.4
            c3.5-1.5,7.4-2.4,11.7-2.4l228.1-0.4h0c10.1,0,19.3-4.1,26-10.8c6.6-6.6,10.8-15.8,10.8-26c0-10.1-4.1-19.3-10.8-26
            c-0.2-0.2-0.4-0.4-0.6-0.6c0.7-3,1.1-6.1,1.1-9.2c0-5.9-1.3-11.9-4-17.6c-12.9-27-33.1-49-58-64.2c-24.9-15.2-54.5-23.7-86.2-23.7
            c-31.2,0-62.9,8.9-89.8,26.1c-26.9,17.2-49.1,42.7-60.5,75.7c-0.4,1.2-0.6,2.5-0.6,3.8c0,3.1,1.3,6,3.3,8.1c2,2.1,5,3.5,8.2,3.5
            l261.3-0.1c3.7,0,7.3,0.9,10.4,2.4c-1.3,2.4-2.9,4.6-4.8,6.5c-5.3,5.4-12.5,8.8-21,8.9l-227.7,0.4h0c-10.1,0-19.3,4.1-26,10.8
            c-6.6,6.6-10.8,15.8-10.8,26c0,10.1,4.1,19.3,10.8,26c0.1,0.1,0.2,0.2,0.3,0.3c-0.7,3.1-1.1,6.3-1.1,9.5c0,5.9,1.3,12,4.1,17.9
            c12.9,26.9,33.1,48.8,58,64c24.9,15.2,54.5,23.6,86.1,23.6c32,0,63.9-8.9,90.7-26.1c26.8-17.2,48.6-42.7,60-75.7l0,0
            c0.4-1.2,0.6-2.5,0.6-3.8c0-3.1-1.3-6-3.3-8.1C566.9,338.5,563.9,337.1,560.7,337.1z M542.5,245.7l-260.1,0.1
            c10.6-29.6,30.5-52.4,55-68.1c24.8-15.8,54.4-24.2,83.2-24.2c29.5,0,56.8,7.8,79.8,21.8c22.9,14,41.5,34.2,53.3,58.9
            c1.9,4.1,2.8,8.2,2.8,12.3c0,0.6-0.1,1.2-0.1,1.8C552.1,246.6,547.4,245.7,542.5,245.7z M275.1,312.9c0-6.7,2.7-12.8,7.1-17.2
            c4.4-4.4,10.5-7.1,17.2-7.1l227.7-0.4c11.9,0,22.5-5,29.9-12.6c2.1-2.1,3.9-4.5,5.5-7c2.7,3.9,4.3,8.7,4.3,13.8
            c0,6.7-2.7,12.8-7.1,17.2c-4.4,4.4-10.5,7.1-17.2,7.1l-228.1,0.4c-6,0-11.6,1.2-16.6,3.5c-7.6,3.3-13.8,8.8-18.2,15.4
            c-0.1,0.2-0.2,0.3-0.3,0.5C276.6,322.5,275.1,317.9,275.1,312.9z M504.8,417.6c-24.7,15.8-54.3,24.1-84,24.1
            c-29.4,0-56.7-7.8-79.7-21.8c-22.9-14-41.4-34.1-53.3-58.8c-2-4.2-2.9-8.4-2.9-12.5c0-0.7,0.1-1.3,0.1-1.9
            c4.4,1.9,9.2,2.9,14.3,2.9v-6.2l0,6.2l260-0.1C548.8,379.1,529.2,402,504.8,417.6z"
        />
    </g>
</svg>