<?xml version="1.0" encoding="utf-8"?>
<svg version="1.1" xmlns="http://www.w3.org/2000/svg" xmlns:xlink="http://www.w3.org/1999/xlink" viewBox="0 0 338 350" xml:space="preserve">
    <defs>
        <linearGradient id="linear-gradient" x1="0.5" y1="1" x2="0.5" gradientUnits="objectBoundingBox" gradientTransform="rotate(10)">
            <stop offset="0" stop-color="rgba(201,128,33,0.60)"/>
            <stop offset="1" stop-color="rgb(201,128,33)"/>
        </linearGradient>
        <filter id="bevelLight" x="-20%" y="-20%" width="140%" height="140%">
            <feGaussianBlur in="SourceAlpha" stdDeviation="2" result="blur"/>
            <feSpecularLighting in="blur" surfaceScale="1" specularConstant="0.6"
                specularExponent="25" lighting-color="rgb(201,128,33)" result="specOut">
                <fePointLight x="-2000" y="-3000" z="5000"/>
            </feSpecularLighting>
            <feComposite in="specOut" in2="SourceAlpha" operator="in" result="specOut"/>
            <feComposite in="SourceGraphic" in2="specOut" operator="arithmetic" k1="0" k2="1" k3="1" k4="0"/>
        </filter>
    </defs>
    <g fill="white" transform="translate(-252,-129)">
        <g fill="url(#linear-gradient)"
            filter="url(#bevelLight)">
            <path d="M514.5,272.6l-172.8,0.1c-2.6,0-5-0.6-7.1-1.7c0.8-1.5,1.9-3,3.1-4.2c1.7-1.8,3.8-3.2,6.1-4.3
                c2.3-1,4.9-1.6,7.7-1.6l150.9-0.2h0c6.7,0,12.8-2.7,17.2-7.1c4.4-4.4,7.1-10.5,7.1-17.2c0-6.7-2.7-12.8-7.1-17.2
                c-0.1-0.1-0.3-0.3-0.4-0.4c0.5-2,0.7-4,0.7-6.1c0-3.9-0.8-7.9-2.7-11.7c-8.5-17.8-21.9-32.4-38.4-42.5
                c-16.5-10.1-36.1-15.7-57-15.7c-20.6,0-41.6,5.9-59.4,17.3c-17.8,11.3-32.4,28.2-40,50.1c-0.3,0.8-0.4,1.7-0.4,2.5
                c0,2.1,0.8,3.9,2.2,5.3c1.3,1.4,3.3,2.3,5.4,2.3l172.8-0.1c2.5,0,4.8,0.6,6.9,1.6c-0.9,1.6-1.9,3-3.2,4.3
                c-3.5,3.6-8.3,5.8-13.9,5.9l-150.6,0.2h0c-6.7,0-12.8,2.7-17.2,7.1c-4.4,4.4-7.1,10.5-7.1,17.2c0,6.7,2.7,12.8,7.1,17.2
                c0.1,0.1,0.1,0.1,0.2,0.2c-0.5,2-0.8,4.1-0.8,6.3c0,3.9,0.9,8,2.7,11.8c8.5,17.8,21.9,32.3,38.4,42.3c16.5,10,36,15.6,57,15.6
                c21.2,0,42.2-5.9,60-17.3c17.7-11.4,32.1-28.3,39.7-50l0,0c0.3-0.8,0.4-1.7,0.4-2.5c0-2.1-0.8-3.9-2.2-5.3
                C518.6,273.5,516.6,272.6,514.5,272.6z M502.4,212.1l-172,0.1c7-19.6,20.2-34.7,36.4-45c16.4-10.5,36-16,55-16
                c19.5,0,37.6,5.2,52.8,14.5c15.2,9.3,27.4,22.6,35.2,39c1.3,2.7,1.9,5.4,1.9,8.1c0,0.4,0,0.8-0.1,1.2
                C508.8,212.8,505.7,212.1,502.4,212.1z M325.6,256.6c0-4.5,1.8-8.5,4.7-11.4c2.9-2.9,6.9-4.7,11.4-4.7l150.6-0.2
                c7.9,0,14.9-3.3,19.7-8.3c1.4-1.4,2.6-3,3.6-4.6c1.8,2.6,2.8,5.7,2.9,9.1c0,4.5-1.8,8.5-4.7,11.4c-2.9,2.9-6.9,4.7-11.4,4.7
                l-150.9,0.2c-3.9,0-7.7,0.8-11,2.3c-5,2.2-9.1,5.8-12,10.2c-0.1,0.1-0.1,0.2-0.2,0.3C326.6,263,325.6,259.9,325.6,256.6z
                M477.5,325.9c-16.3,10.5-35.9,16-55.6,16c-19.5,0-37.5-5.2-52.7-14.4c-15.2-9.2-27.4-22.5-35.2-38.9c-1.3-2.7-1.9-5.5-1.9-8.3
                c0-0.4,0-0.9,0.1-1.3c2.9,1.2,6.1,1.9,9.4,1.9v-4.1l0,4.1l171.9-0.1C506.6,300.4,493.7,315.5,477.5,325.9z"/>
        </g>
        <g transform="translate(380,200) scale(0.5)" fill="rgb(201,128,33)">
            <path d="M257.158,296.672v-14.273h-5.098v-2.906h13.652v2.906h-5.086v14.273H257.158z"/>
            <path d="M267.916,296.672v-17.18h5.191l3.117,11.719l3.082-11.719h5.203v17.18h-3.223v-13.523
                l-3.41,13.523h-3.34l-3.398-13.523v13.523H267.916z"/>
        </g>
        <g>
            <path d="M323.4,413.6V381h4.9c2.2,0,3.9,0.2,5.2,0.5c1.3,0.3,2.4,0.9,3.3,1.7c0.9,0.8,1.6,1.9,2.2,3.1c0.5,1.3,0.8,2.5,0.8,3.8
                c0,2.3-0.9,4.3-2.7,5.9c1.7,0.6,3.1,1.6,4.1,3.1c1,1.5,1.5,3.2,1.5,5.1c0,2.5-0.9,4.7-2.7,6.5c-1.1,1.1-2.3,1.8-3.6,2.3
                c-1.5,0.4-3.3,0.6-5.5,0.6H323.4z M328.3,395h1.5c1.8,0,3.2-0.4,4-1.2c0.9-0.8,1.3-2,1.3-3.6c0-1.5-0.4-2.7-1.3-3.5
                c-0.9-0.8-2.1-1.2-3.8-1.2h-1.7V395z M328.3,409h3c2.2,0,3.9-0.4,4.9-1.3c1.1-0.9,1.6-2.1,1.6-3.6c0-1.4-0.5-2.6-1.6-3.5
                c-1-0.9-2.9-1.4-5.5-1.4h-2.5V409z"/>
            <path d="M355.6,381v19.6c0,2.8,0.5,4.8,1.4,6.1c1.4,1.9,3.3,2.8,5.8,2.8c2.5,0,4.4-0.9,5.8-2.8c0.9-1.3,1.4-3.3,1.4-6.1V381h4.9
                v21c0,3.4-1.1,6.3-3.2,8.5c-2.4,2.5-5.4,3.7-8.9,3.7s-6.4-1.2-8.8-3.7c-2.1-2.2-3.2-5-3.2-8.5v-21H355.6z"/>
            <path d="M395.3,399.7l10.1,13.9h-6l-9.3-13.3h-0.9v13.3h-4.9V381h5.8c4.3,0,7.4,0.8,9.3,2.4c2.1,1.8,3.2,4.2,3.2,7.1
                c0,2.3-0.7,4.3-2,5.9S397.5,399.3,395.3,399.7z M389.2,396h1.6c4.7,0,7-1.8,7-5.3c0-3.3-2.3-5-6.8-5h-1.8V396z"/>
            <path d="M428.1,396.7h13.5v1.1c0,2.4-0.3,4.6-0.9,6.5c-0.6,1.7-1.5,3.4-2.8,4.9c-3,3.4-6.9,5.1-11.5,5.1c-4.6,0-8.5-1.6-11.7-4.9
                c-3.2-3.3-4.9-7.3-4.9-11.9c0-4.7,1.7-8.7,5-12c3.3-3.3,7.3-5,12.1-5c2.5,0,4.9,0.5,7.1,1.6c2.1,1,4.2,2.7,6.2,5.1l-3.5,3.4
                c-2.7-3.6-5.9-5.3-9.8-5.3c-3.4,0-6.3,1.2-8.7,3.6c-2.3,2.3-3.5,5.3-3.5,8.8c0,3.6,1.3,6.6,3.9,9c2.4,2.2,5.1,3.3,7.9,3.3
                c2.4,0,4.6-0.8,6.5-2.4c1.9-1.6,3-3.6,3.2-5.9h-8.1V396.7z"/>
            <path d="M467.4,385.7h-13.1v7.8H467v4.6h-12.7V409h13.1v4.6h-18V381h18V385.7z"/>
            <path d="M486.6,399.7l10.1,13.9h-6l-9.3-13.3h-0.9v13.3h-4.9V381h5.8c4.3,0,7.4,0.8,9.3,2.4c2.1,1.8,3.2,4.2,3.2,7.1
                c0,2.3-0.7,4.3-2,5.9C490.5,398.2,488.8,399.3,486.6,399.7z M480.5,396h1.6c4.7,0,7-1.8,7-5.3c0-3.3-2.3-5-6.8-5h-1.8V396z"/>
            <path d="M521.7,385.9l-4,2.4c-0.7-1.3-1.5-2.1-2.1-2.5c-0.7-0.5-1.6-0.7-2.7-0.7c-1.4,0-2.5,0.4-3.4,1.2c-0.9,0.8-1.4,1.7-1.4,2.9
                c0,1.6,1.2,2.9,3.5,3.8l3.2,1.3c2.6,1.1,4.6,2.4,5.8,3.9c1.2,1.5,1.8,3.4,1.8,5.7c0,3-1,5.5-3,7.4c-2,2-4.5,3-7.5,3
                c-2.8,0-5.2-0.8-7-2.5c-1.8-1.7-2.9-4-3.4-7.1l5-1.1c0.2,1.9,0.6,3.2,1.2,4c1,1.4,2.5,2.1,4.4,2.1c1.5,0,2.8-0.5,3.8-1.5
                c1-1,1.5-2.3,1.5-3.9c0-0.6-0.1-1.2-0.3-1.7s-0.5-1-0.8-1.5c-0.4-0.4-0.9-0.9-1.4-1.2c-0.6-0.4-1.3-0.8-2.1-1.1l-3.1-1.3
                c-4.5-1.9-6.7-4.6-6.7-8.3c0-2.4,0.9-4.5,2.8-6.1c1.9-1.7,4.2-2.5,7-2.5C516.7,380.4,519.6,382.2,521.7,385.9z"/>
        </g>
        <g>
            <path d="M351.1,457.7c-3.2,3.1-7.3,4.8-11.7,4.8c-4.5,0-8.6-1.7-11.7-4.8c-3.1-3.1-4.8-7.1-4.8-11.4c0-4.4,1.7-8.5,4.8-11.5
                c3.1-3.1,7.1-4.7,11.7-4.7s8.6,1.6,11.7,4.7c3.2,3.1,4.8,7.2,4.8,11.5C355.9,450.6,354.2,454.6,351.1,457.7z M352.9,446.2
                c0-7.6-6-13.7-13.6-13.7c-7.5,0-13.5,6-13.5,13.7c0,7.6,6,13.7,13.5,13.7S352.9,453.8,352.9,446.2z"/>
            <path d="M363.9,429.4l21.9,25.8v-24.5h2.6v31.8l-21.9-25.9v25h-2.6V429.4z"/>
            <path d="M411.9,430.7h15.3v2.6h-12.5v9.7h12v2.6h-12v15.9h-2.8V430.7z"/>
            <path d="M435.3,430.7h2.8V459h10.6v2.6h-13.4V430.7z"/>
            <path d="M454.9,430.7h15.3v2.6h-12.5v9.7h12.5v2.6h-12.5V459h12.5v2.6h-15.3V430.7z"/>
            <path d="M478.8,430.7h15.3v2.6h-12.5v9.7h12.5v2.6h-12.5V459h12.5v2.6h-15.3V430.7z"/>
            <path d="M502.7,430.7h2.8v14.5l14-14.5h3.7l-14.6,14.8l15.3,16.1h-4.1l-14.3-15.7v15.7h-2.8V430.7z"/>
        </g>
    </g>
</svg>